<?xml version="1.0" standalone="no"?>
<!DOCTYPE svg PUBLIC "-//W3C//DTD SVG 1.1//EN" "http://www.w3.org/Graphics/SVG/1.1/DTD/svg11.dtd" >
<!--
2013-9-30: Created.
-->
<svg>
<metadata>
Created by iconfont
</metadata>
<defs>

<font id="iconfont" horiz-adv-x="1024" >
  <font-face
    font-family="iconfont"
    font-weight="500"
    font-stretch="normal"
    units-per-em="1024"
    ascent="896"
    descent="-128"
  />
    <missing-glyph />
    
    <glyph glyph-name="x" unicode="x" horiz-adv-x="1001"
d="M281 543q-27 -1 -53 -1h-83q-18 0 -36.5 -6t-32.5 -18.5t-23 -32t-9 -45.5v-76h912v41q0 16 -0.5 30t-0.5 18q0 13 -5 29t-17 29.5t-31.5 22.5t-49.5 9h-133v-97h-438v97zM955 310v-52q0 -23 0.5 -52t0.5 -58t-10.5 -47.5t-26 -30t-33 -16t-31.5 -4.5q-14 -1 -29.5 -0.5
t-29.5 0.5h-32l-45 128h-439l-44 -128h-29h-34q-20 0 -45 1q-25 0 -41 9.5t-25.5 23t-13.5 29.5t-4 30v167h911zM163 247q-12 0 -21 -8.5t-9 -21.5t9 -21.5t21 -8.5q13 0 22 8.5t9 21.5t-9 21.5t-22 8.5zM316 123q-8 -26 -14 -48q-5 -19 -10.5 -37t-7.5 -25t-3 -15t1 -14.5
t9.5 -10.5t21.5 -4h37h67h81h80h64h36q23 0 34 12t2 38q-5 13 -9.5 30.5t-9.5 34.5q-5 19 -11 39h-368zM336 498v228q0 11 2.5 23t10 21.5t20.5 15.5t34 6h188q31 0 51.5 -14.5t20.5 -52.5v-227h-327z" />
    

    
    <glyph glyph-name="dianhua" unicode="&#58880;" d="M704.512 508.928q21.504-25.6 46.08-52.224 20.48-23.552 45.568-52.224t51.712-58.368q33.792-38.912 55.808-69.632t34.816-56.32 17.408-47.104 4.608-43.008l0-66.56q0-30.72-10.24-55.296t-28.16-42.496-40.96-27.648-48.64-9.728l-631.808 0q-27.648 0-52.736 9.216t-44.032 26.112-30.208 40.448-11.264 53.248l0 78.848q0 24.576 4.608 47.104t16.896 47.104 33.792 52.736 54.272 61.952q26.624 28.672 54.784 57.856t50.688 52.736q26.624 27.648 51.2 53.248l375.808 0zM512 120.832q26.624 0 50.176 10.24t40.96 27.648 27.648 41.472 10.24 50.688-10.24 50.176-27.648 40.96-40.96 27.648-50.176 10.24-50.688-10.24-41.472-27.648-27.648-40.96-10.24-50.176 10.24-50.688 27.648-41.472 41.472-27.648 50.688-10.24zM1025.024 632.832l0-64.512q0-26.624-18.944-45.056t-45.568-18.432l-128 0q-26.624 0-45.056 18.432t-18.432 45.056l0 64.512-513.024 0 0-64.512q0-26.624-18.432-45.056t-45.056-18.432l-128 0q-26.624 0-45.568 18.432t-18.944 45.056l0 64.512 0 2.048q0 12.288 6.144 20.992t15.36 15.872 20.48 12.8 22.528 12.8q11.264 6.144 50.688 27.136t99.328 43.52 136.192 39.936 162.304 17.408q98.304 0 175.616-17.408t134.144-39.936 91.136-43.52 46.592-27.136q12.288-7.168 23.552-12.8t20.48-12.8 14.848-15.872 5.632-20.992l0-2.048z"  horiz-adv-x="1026" />

    
    <glyph glyph-name="icon05" unicode="&#58902;" d="M689.10872 639.662957c-142.682653 142.682653-374.016369 142.682653-516.699022 0s-142.682653-374.016369 0-516.699022c131.421168-131.421168 338.050226-141.791353 481.343793-31.115672l31.025621-31.025621-20.445658-20.445658 171.20322-171.20322c21.223371-21.223371 55.632041-21.223371 76.855412 0l30.507828 30.507828c21.223371 21.223371 21.223371 55.632041 0 76.855412l-171.20322 171.20322-20.445658-20.445658-31.025621 31.025621C830.900074 301.612731 820.529889 508.242811 689.10872 639.662957zM269.069155 219.623391c-89.298815 89.298815-89.298815 234.081293 0 323.381132 89.298815 89.298815 234.081293 89.298815 323.381132 0s89.298815-234.081293 0-323.381132S358.368994 130.324576 269.069155 219.623391z"  horiz-adv-x="1024" />

    
    <glyph glyph-name="mianfeijianli" unicode="&#58888;" d="M775.938809 483.498244c0 82.239026-37.619806 155.676595-96.575546 204.085118l-32.350802-153.950278-39.035038 8.199753 35.794228 170.319084C604.980159 734.555164 560.007899 747.439612 511.996418 747.439612c-49.250704 0-95.326089-13.527085-134.784776-37.014009l35.426861-168.592766-39.035038-8.199753L341.767386 685.138684c-57.293891-48.408523-93.713358-120.752178-93.713358-201.64044l-48.483224 0 0-64.647369 624.843044 0 0 64.647369L775.938809 483.498244zM653.647579 186.123416c-59.277058-89.859587-105.741299-230.839459-105.741299-230.839459l-10.233062 192.414311L486.319619 147.698269l-10.233062-192.414311c0 0-46.464241 140.979872-105.731066 230.839459C112.673687 153.633445 64.279491 16.641397 64.279491-147.471334l895.432833 0C959.712323 16.641397 911.318126 153.633445 653.647579 186.123416zM703.870424 461.083745c2.997264-13.624299 4.685719-27.720342 4.685719-42.233893 0-108.37222-88.176249-196.548468-196.559725-196.548468s-196.565864 88.176249-196.565864 196.548468c0 14.513552 1.688455 28.609595 4.689812 42.233893l-55.793724 0c-2.324952-13.849426-3.762697-27.912723-3.762697-42.233893 0-67.167772 26.155706-130.293485 73.642231-177.790242 47.491641-47.485501 110.627586-73.642231 177.790242-73.642231 67.161632 0 130.297578 26.15673 177.790242 73.642231 47.486524 47.496757 73.641207 110.623493 73.641207 177.790242 0 14.32117-1.434675 28.384467-3.762697 42.233893L703.870424 461.083745zM456.737884 151.27984 472.087477 74.020222 551.90536 74.020222 567.254953 151.27984Z"  horiz-adv-x="1024" />

    
    <glyph glyph-name="pinterest" unicode="&#59437;" d="M512 895.959042c-282.75605 0-511.979521-229.223471-511.979521-511.979521 0-216.895004 134.937323-402.149674 325.393704-476.75533-4.484941 40.50782-8.519339 102.641654 1.781689 146.876685 9.297548 39.954882 60.044958 254.49478 60.044958 254.49478s-15.318427 30.657334-15.318427 75.99824c0 71.185633 41.265549 124.329107 92.647814 124.329107 43.682093 0 64.775649-32.787169 64.775649-72.107196 0-43.927843-27.954082-109.604576-42.412384-170.448222-12.062238-50.972681 25.558018-92.524939 75.813927-92.524939 91.00948 0 160.945882 95.965441 160.945882 234.466141 0 122.588376-88.080957 208.293748-213.864085 208.293748-145.668413 0-231.168993-109.276909-231.168993-222.178633 0-44.00976 16.956762-91.193792 38.091276-116.833727 4.177753-5.078837 4.792128-9.522819 3.542898-14.683573-3.891044-16.178553-12.512779-50.952202-14.212551-58.078957-2.232231-9.358986-7.413463-11.345466-17.120595-6.840046-63.956482 29.776729-103.931843 123.264189-103.931843 198.340866 0 161.49882 117.345706 309.829527 338.275109 309.829527 177.595456 0 315.625135-126.561338 315.625135-295.698892 0-176.448622-111.24291-318.451262-265.655934-318.451262-51.873765 0-100.655174 26.950602-117.345706 58.795728 0 0-25.680893-97.767609-31.886085-121.707772-11.570737-44.460302-42.76053-100.204632-63.649294-134.220551 47.900804-14.826927 98.812048-22.834287 151.607376-22.834287 282.75605 0 511.979521 229.223471 511.979521 511.979521s-229.223471 511.979521-511.979521 511.979521z"  horiz-adv-x="1024" />

    
    <glyph glyph-name="skype" unicode="&#59488;" d="M975.31904 318.0544c2.80576 20.80768 4.42368 41.94304 4.42368 63.46752 0 258.31424-210.5344 467.74272-470.20032 467.74272-25.8048 0-51.11808-2.12992-75.73504-6.16448-44.1344 28.7744-96.68608 45.52704-153.23136 45.52704-155.05408 0-280.576-125.62432-280.576-280.61696 0-56.40192 16.5888-108.78976 45.17888-152.7808-3.85024-24.04352-5.81632-48.64-5.81632-73.728 0-258.3552 210.432-467.7632 470.17984-467.7632 29.30688 0 57.856 2.84672 85.58592 7.86432 43.08992-26.74688 93.85984-42.2912 148.29568-42.2912 155.01312 0 280.576 125.6448 280.576 280.61696 0 58.59328-17.92 113.0496-48.68096 158.08512zM553.472 36.80256c-149.4016-7.7824-219.32032 25.27232-283.38176 85.38112-71.53664 67.13344-42.8032 143.70816 15.48288 147.59936 58.24512 3.8912 93.20448-66.02752 124.29312-85.46304 31.04768-19.37408 149.1968-63.52896 211.57888 7.82336 67.95264 77.66016-45.17888 117.84192-128.12288 130.00704-118.41536 17.53088-267.89888 81.59232-256.26624 207.81056 11.63264 126.1568 107.17184 190.83264 207.70816 199.94624 128.16384 11.63264 211.57888-19.41504 277.56544-75.71456 76.30848-65.06496 35.0208-137.78944-13.59872-143.64672-48.41472-5.81632-102.8096 107.008-209.57184 108.70784-110.05952 1.72032-184.44288-114.52416-48.57856-147.5584 135.92576-33.01376 281.4976-46.57152 333.9264-170.84416 52.44928-124.27264-81.5104-256.24576-231.03488-264.04864z"  horiz-adv-x="1024" />

    
    <glyph glyph-name="buxiugang" unicode="&#58954;" d="M1022.730881 896l-2.072928 0-61.826851 0-2.072928 0L511.538781 896 447.639002 896l-2.072928 0L383.664568 832.101243l0.075677 0-383.394586-383.394586 0 0 0 0 0-63.898757 0 0 0-105.832859 0.508261 0-0.508261-1.298776 159.658432-62.490556 0-106.807453L0.345658 45.886677l0.226007-0.578825-0.226007 0 0-109.054233 0 0 0-63.898757L573.36461-127.645138l0-0.354862 0.348726 0.354862 1.723179 0 0 1.753859 444.773513 452.67048 0.447924 0 0 0.456106 0 63.898757 0 100.50481-0.346681 0.137036 0.256687 0.656547L850.944744 558.824454l169.310281 172.315874 0.40395 0 0 0.411109L1020.658975 795.451216l0 98.476878L1022.730881 896zM447.639002 832.101243l447.293343 0-383.394586-383.394586 0 0L64.244415 448.706657 447.639002 832.101243zM64.244415 2.27746l159.658432 62.490556-0.30782 0.786424 0.30782 0L223.902847 259.248985l-1.162762 0L64.244415 321.284459l0 63.522419 447.293343 0 0-64.143172L353.043111 258.628232l-1.162762 0L351.880349 64.933687l0.30782 0-0.30782-0.786424 159.658432-62.490556 0-65.403087L64.244415-63.746381 64.244415 2.27746zM465.935381 88.125531l392.488064 399.152728 64.690294-25.319996-397.893835-397.036848L465.935381 88.125531zM575.437538-61.992522 575.437538 45.307852l-0.108402 0-1.411268 0.552235L956.759196 427.877153l0-101.097951 0.666773 0L575.437538-61.992522zM809.728548 506.337541 417.240484 107.184814l-1.460356 0.571666L415.780128 214.563932l159.658432 62.490556-0.383497 0.979707 227.195807 231.229171L809.728548 506.337541zM957.469943 731.140328 575.437538 342.32463l0 42.48327 0 0L575.437538 448.706657 956.759196 830.028315l0-98.887987L957.469943 731.140328z"  horiz-adv-x="1024" />

    
    <glyph glyph-name="google0" unicode="&#59023;" d="M410.148864 616.027136c-40.522752 1.19808-67.724288-39.596032-60.695552-92.85632 6.962176-53.327872 45.504512-90.55232 86.028288-91.810816 40.464384-1.175552 63.740928 33.110016 56.771584 86.445056C485.289984 571.065344 450.605056 614.791168 410.148864 616.027136zM427.14112 322.321408c-60.367872 0.687104-111.486976-38.178816-111.486976-83.257344 0-45.973504 43.568128-84.265984 103.958528-84.265984 84.836352 0 114.412544 35.93728 114.412544 81.94048 0 5.551104-0.6912 10.984448-1.921024 16.229376-6.672384 26.00448-33.060864 40.281088-65.876992 63.115264C454.358016 319.937536 441.20064 322.187264 427.14112 322.321408zM513.676288 896c-281.63072 0-509.958144-228.763648-509.958144-510.911488 0-282.18368 228.328448-510.892032 509.958144-510.892032 281.673728 0 509.950976 228.708352 509.950976 510.892032C1023.627264 667.236352 795.350016 896 513.676288 896zM552.64256 520.050688c0-33.31584-18.363392-60.12928-44.394496-80.45056-25.376768-19.893248-30.186496-28.19584-30.186496-45.099008 0-14.39744 30.314496-35.861504 44.274688-46.309376 48.535552-36.478976 58.381312-59.42784 58.381312-105.023488 0-56.945664-61.270016-113.509376-160.78336-113.509376-87.346176 0-161.050624 35.557376-161.050624 92.490752 0 57.750528 61.134848 117.991424 148.466688 117.991424 9.531392 0 18.228224 0.26112 27.25376 0.26112-11.9296 11.593728-21.594112 21.61664-21.594112 39.1936 0 10.484736 3.291136 20.451328 7.98208 29.379584-4.736-0.305152-9.590784-0.618496-14.58688-0.618496-71.701504 0-113.475584 50.500608-113.475584 113.821696 0 61.983744 63.561728 118.367232 139.828224 118.367232 39.33184 0 150.327296 0 150.327296 0l-33.619968-35.369984-39.465984 0C537.884672 589.2096 552.64256 556.35968 552.64256 520.050688zM768.468992 529.339392l-69.35552 0 0-69.419008-34.670592 0 0 69.419008-69.280768 0L595.162112 564.077568l69.280768 0 0 69.489664 34.670592 0 0-69.489664 69.35552 0L768.468992 529.339392z"  horiz-adv-x="1024" />

    
    <glyph glyph-name="linkedin0" unicode="&#59032;" d="M0 896 0 896 0 896ZM512 875.52c-271.456 0-491.52-220.064-491.52-491.52s220.064-491.52 491.52-491.52 491.52 220.064 491.52 491.52-220.064 491.52-491.52 491.52zM391.68 180.288l-99.52 0 0 320.256 99.52 0 0-320.256zM341.312 539.84c-31.424 0-51.776 22.336-51.776 49.824 0 28.16 20.928 49.76 53.056 49.76s51.776-21.6 52.384-49.76c0.064-27.552-20.288-49.824-53.664-49.824zM755.136 180.288l-99.488 0 0 177.504c0 41.28-14.432 69.376-50.432 69.376-27.488 0-43.84-19.008-51.104-37.312-2.624-6.496-3.264-15.712-3.264-24.832l0-184.672-99.584 0 0 218.112c0 39.936-1.28 73.376-2.624 102.144l86.432 0 4.608-44.48 1.952 0c13.12 20.928 45.216 51.712 98.912 51.712 65.472 0 114.592-43.84 114.592-138.144l0-189.376z"  horiz-adv-x="1024" />

    
    <glyph glyph-name="2fengongsi" unicode="&#58923;" d="M703.962507-127.90002 639.975005-127.90002 320.037493-127.90002l-63.987502 0L0.09998-127.90002 0.09998 576.062488l255.95001 0L256.04999 832.012498l191.962507 0L448.012498 896l63.987502 0 0-64.087483 192.062488 0 0-383.925015L959.912517 447.987502l0-575.987502L703.962507-128 703.962507-127.90002 703.962507-127.90002zM256.04999 511.975005 64.087483 511.975005l0-575.787541 63.987502 0L128.074985 64.162468l63.987502 0 0-127.875024 64.087483 0L256.04999 511.975005 256.04999 511.975005 256.04999 511.975005zM639.975005 448.087483 639.975005 768.024995 320.037493 768.024995 320.037493 576.062488l0-639.775044 95.881273 0L415.918766 64.162468l127.975005 0 0-127.875024 95.981254 0L639.875024 448.087483 639.975005 448.087483 639.975005 448.087483zM895.925015 384.09998 703.962507 384.09998l0-447.912517 63.987502 0L767.95001 64.162468l63.987502 0 0-127.875024 63.987502 0L895.925015 384.09998 895.925015 384.09998 895.925015 384.09998zM767.95001 192.037493l63.987502 0L831.937512 128.149971l-63.987502 0L767.95001 192.037493 767.95001 192.037493 767.95001 192.037493zM767.95001 320.012498l63.987502 0 0-63.987502-63.987502 0L767.95001 320.012498 767.95001 320.012498 767.95001 320.012498zM415.918766 192.037493l127.975005 0L543.893771 128.149971l-127.975005 0L415.918766 192.037493 415.918766 192.037493 415.918766 192.037493zM415.918766 320.012498l127.975005 0 0-63.987502-127.975005 0L415.918766 320.012498 415.918766 320.012498 415.918766 320.012498zM415.918766 448.087483l127.975005 0 0-63.987502-127.975005 0L415.918766 448.087483 415.918766 448.087483 415.918766 448.087483zM415.918766 576.062488l127.975005 0 0-63.987502-127.975005 0L415.918766 576.062488 415.918766 576.062488 415.918766 576.062488zM415.918766 704.037493l127.975005 0 0-63.987502-127.975005 0L415.918766 704.037493 415.918766 704.037493 415.918766 704.037493zM127.975005 192.037493l63.987502 0L191.962507 128.149971l-63.987502 0L127.975005 192.037493 127.975005 192.037493 127.975005 192.037493zM127.975005 320.012498l63.987502 0 0-63.987502-63.987502 0L127.975005 320.012498 127.975005 320.012498 127.975005 320.012498zM127.975005 448.087483l63.987502 0 0-63.987502-63.987502 0L127.975005 448.087483 127.975005 448.087483 127.975005 448.087483zM127.975005 448.087483"  horiz-adv-x="1024" />

    
    <glyph glyph-name="dianhua1" unicode="&#58885;" d="M507.918859 245.472488c-49.503789 40.346806-106.623387 94.611243-156.090335 155.822216-34.713235 42.89496-65.404683 87.94306-33.707276 119.633303L95.656089 742.757663C63.221866 702.344339-8.620745 509.896237 299.338585 194.825612c324.458887-332.036833 533.74323-261.005742 569.766359-223.573453L652.205814 187.850422C621.886867 157.599017 582.842793 184.496887 507.918859 245.472488zM947.385483 97.093135l0 0.201601c0 0-169.23738 168.702166-169.343809 168.769707-13.381394 13.347623-34.814547 13.078481-48.127376-0.067541l-61.340939-61.375733 217.469138-217.203066c0 0 61.409504 61.176179 61.342986 61.245767l0.165784 0.132013C961.605005 62.851667 960.162074 84.24798 947.385483 97.093135zM396.298428 598.873909l0 0.168854c14.051691 14.083415 12.74589 35.45005 0 48.196964l0 0.234348c0 0-174.132089 173.597897-174.200654 173.597897-13.452005 13.484753-34.884135 13.148069-48.163193 0l-61.342986-61.441228 222.299375-221.961668C334.888924 537.664983 396.298428 598.774644 396.298428 598.873909z"  horiz-adv-x="1025" />

    
    <glyph glyph-name="changjianwenti" unicode="&#58952;" d="M933.966451 385.010003c0 233.483682-189.238992 422.727791-422.711418 422.727791s-422.716534-189.244108-422.716534-422.727791c0-233.428424 189.244108-422.700161 422.716534-422.700161 48.714492 0 95.464235 8.331759 139.006937 23.496134l243.444545-23.496134-79.32772 128.23664C888.35667 166.677393 933.966451 270.509203 933.966451 385.010003L933.966451 385.010003zM573.644989 95.264946 468.106304 95.264946l0 97.202832 105.538685 0L573.644989 95.264946 573.644989 95.264946zM615.303784 353.550501c-37.063127-24.084535-54.637388-51.857065-52.769854-83.317591l0-19.446911-83.321684 0L479.212246 273.008116c-1.863441 55.54506 24.042579 102.758362 77.767178 141.641951 51.813063 35.151591 74.985832 72.210625 69.430302 111.094214-5.54939 44.432978-33.327036 68.474534-83.316567 72.205509-66.656119 1.824555-105.538685-31.502481-116.650767-99.978039l-88.871073 24.991184c24.040533 109.225657 95.339392 161.083745 213.851553 155.532309 103.671151-5.554506 160.127977-57.412594 169.413458-155.532309C722.661907 461.864392 687.514409 405.364587 615.303784 353.550501L615.303784 353.550501zM615.303784 353.550501"  horiz-adv-x="1024" />

    
    <glyph glyph-name="iconfontdianhua3" unicode="&#58897;" d="M715.833897-61.531146c-55.903218 0-128.07598 37.244252-178.778756 68.489884-67.902506 41.845037-141.05355 99.728352-205.977211 162.988118l-0.236384 0.233314-20.615527 20.61962c-63.259766 64.922638-121.143081 138.074705-162.988118 205.978235-31.244608 50.701752-68.489884 122.875538-68.489884 178.777733 0 59.821457 42.779316 123.31863 61.171198 147.842163 14.352893 19.136849 64.49285 81.575924 107.096157 81.575924 17.492396 0 36.334533-11.449773 61.093427-37.126572 21.896706-22.707165 42.912345-50.929949 56.686047-70.607104 18.494213-26.419719 35.599799-54.083779 48.165999-77.894068 20.35049-38.559201 22.704095-55.091736 22.704095-64.173578 0-18.330484-9.572006-34.227546-28.448936-47.25014-12.431124-8.575306-27.353998-15.030321-41.785685-21.272489-9.730619-4.208858-25.269523-10.929934-31.197536-15.653515 2.067079-8.759501 11.107989-29.913287 35.535331-65.776076 22.763446-33.420157 52.199872-69.63701 78.791507-96.943936 27.301809-26.589588 63.515592-56.026014 96.939843-78.790484 35.855626-24.421202 57.010435-33.463136 65.771983-35.532261 4.724605 5.929036 11.44568 21.466917 15.654538 31.196513 6.243191 14.431687 12.698207 29.355585 21.275559 41.786709 13.023618 18.876929 28.921703 28.448936 47.252187 28.448936 9.080819 0 25.613354-2.353604 64.172555-22.704095 23.810289-12.5662 51.473325-29.67281 77.893045-48.165999 19.677155-13.773701 47.89994-34.789341 70.607104-56.686047 25.676799-24.75787 37.126572-43.600007 37.126572-61.092403 0-42.60433-62.439074-92.745311-81.5749-107.09718C839.15355-18.75183 775.6574-61.531146 715.833897-61.531146zM366.903879 206.475817c62.282508-60.670801 132.234697-116.051109 196.993606-155.959028 62.786998-38.692231 118.166283-60.882626 151.936411-60.882626 30.081109 0 72.969918 18.370393 114.723881 49.140187 18.306948 13.490246 34.967396 28.513404 46.913473 42.304502 11.211343 12.941753 15.307637 21.383006 16.35141 24.795732-4.330632 9.304923-30.063713 38.403658-90.1236 79.836303-23.557532 16.251126-47.914266 31.185256-68.583005 42.051745-25.954115 13.643742-36.766368 15.999392-39.244816 16.387225-0.958838-0.657986-3.790326-3.02387-8.083096-10.224876-4.810562-8.068769-9.43386-18.754133-13.903661-29.088502-5.504364-12.724813-11.195993-25.88146-18.176988-36.499285-11.354606-17.271362-25.295106-26.030863-41.432645-26.037003-0.293689-0.002047-0.597611 0.00307-0.905626 0.010233-7.855922 0.167822-31.766494 0.678452-96.674806 44.887326-35.839253 24.409946-74.752518 56.063877-104.090707 84.673471l-0.456395 0.456395c-28.609595 29.343305-60.261479 68.254523-84.669378 104.08866-44.213991 64.912405-44.723597 88.820931-44.890396 96.676853-0.352017 16.430204 8.316409 30.618345 25.764803 42.168402 10.667967 7.061836 23.935132 12.799514 36.764322 18.348903 10.333346 4.468778 21.017686 9.091052 29.085432 13.899568 7.199982 4.291746 9.567913 7.123234 10.225899 8.082072-0.388856 2.478448-2.743484 13.290701-16.387225 39.242769-10.865465 20.668739-25.799596 45.025473-42.050722 68.583005-41.432645 60.060911-70.532403 85.792968-79.837326 90.125647-3.412726-1.043772-11.852956-5.140067-24.795732-16.35141-13.791098-11.9471-28.814256-28.607548-42.303478-46.913473-30.769794-41.756009-49.140187-84.642772-49.140187-114.723881 0-33.769105 22.191418-89.147366 60.882626-151.935388 39.907918-64.759933 95.28925-134.712121 155.960051-196.99463L366.903879 206.475817z"  horiz-adv-x="1024" />

    
    <glyph glyph-name="facebookfacebook52" unicode="&#58882;" d="M1024 384c0 282.763636-229.236364 512-512 512C229.236364 896 0 666.763636 0 384s229.236364-512 512-512C794.763636-128 1024 101.236364 1024 384zM374.504727 384 374.504727 481.978182l60.043636 0L434.548364 541.230545c0 79.918545 23.877818 137.495273 111.383273 137.495273l104.075636 0 0-97.745455-73.262545 0c-36.724364 0-45.056-24.389818-45.056-49.943273l0-49.058909 112.919273 0L629.201455 384l-97.512727 0 0-295.517091L434.548364 88.482909 434.548364 384 374.504727 384z"  horiz-adv-x="1024" />

    
    <glyph glyph-name="LC_icon_chat_fill" unicode="&#58939;" d="M413.75 674.612c-228.517 0-413.75-142.457-413.75-318.269 0-86.187 44.621-164.545 117.059-221.834-4.201-58.434-18.269-129.918-59.007-168.428 81.095 0 163.972 50.796 216.36 90.516 43.539-11.967 90.389-18.523 139.338-18.523 228.517 0 413.75 142.394 413.75 318.269 0 175.812-185.233 318.269-413.75 318.269zM963.72 325.343c34.819 46.531 54.742 100.637 54.742 158.307 0 175.812-185.233 318.269-413.75 318.269-100.573 0-192.744-27.626-264.418-73.457 33.737 6.365 69.001 9.803 105.284 9.803 246.086 0 445.577-156.78 445.577-350.096 0-76.194-30.872-146.786-83.514-204.138 52.26-39.72 135.264-90.643 216.36-90.643-57.67 54.742-61.808 176.067-60.28 231.955z"  horiz-adv-x="1024" />

    
    <glyph glyph-name="tuitetwitter43" unicode="&#58892;" d="M1024 384c0 282.763636-229.236364 512-512 512C229.236364 896 0 666.763636 0 384s229.236364-512 512-512C794.763636-128 1024 101.236364 1024 384zM236.311273 202.053818c8.843636-1.117091 17.873455-1.722182 26.996364-1.722182 53.015273-0.093091 101.794909 19.037091 140.474182 51.153455-49.524364 1.163636-91.275636 36.165818-105.658182 84.200727 6.888727-1.442909 14.010182-2.280727 21.271273-2.327273 10.333091-0.046545 20.293818 1.349818 29.789091 4.049455-51.758545 11.450182-90.763636 60.555636-90.763636 119.063273 0 0.512 0 1.024 0 1.536 15.266909-9.216 32.674909-14.801455 51.246545-15.639273C279.365818 464.290909 259.397818 501.527273 259.397818 543.418182c0 22.155636 5.585455 42.821818 15.313455 60.509091 55.808-73.774545 139.170909-122.740364 233.146182-128.837818-1.954909 8.797091-2.932364 17.966545-2.932364 27.322182 0 66.141091 50.641455 118.923636 113.105455 117.899636 32.535273-0.558545 61.952-15.499636 82.571636-38.958545 25.786182 4.933818 49.989818 14.429091 71.819636 27.694545-8.424727-27.601455-26.391273-50.594909-49.757091-64.977455 22.900364 2.56 44.683636 8.610909 64.977455 17.780364-15.173818-23.598545-34.350545-44.218182-56.459636-60.695273 0.232727-5.12 0.325818-10.24 0.325818-15.36 0-157.044364-113.803636-338.152727-321.861818-338.059636C345.832727 147.688727 286.347636 167.703273 236.311273 202.053818z"  horiz-adv-x="1024" />

    
    <glyph glyph-name="fenxiang" unicode="&#58913;" d="M750.535901 242.383676c-43.287782 0-82.48588-17.828115-110.653913-46.518366L395.697941 336.750528c6.530798 16.423246 10.125911 34.322014 10.125911 53.044044 0 15.762794-2.554773 30.938861-7.255759 45.144216l229.464666 153.118433c25.846722-24.615926 60.805638-39.746939 99.232696-39.746939 79.398649 0 143.993952 64.595303 143.993952 143.993952 0 79.410937-64.595303 144.016479-143.993952 144.016479s-143.993952-64.605543-143.993952-144.016479c0-15.822183 2.573204-31.053544 7.309005-45.306001L361.184446 493.925879c-25.85901 24.683507-60.8681 39.862646-99.354547 39.862646-79.398649 0-143.993952-64.595303-143.993952-143.993952s64.595303-143.993952 143.993952-143.993952c35.346995 0 67.753186 12.809702 92.839109 34.020971L603.357443 136.336546c-5.162791-15.437176-7.966385-31.944386-7.966385-49.09669 0-85.547511 69.598357-155.145868 155.145868-155.145868 85.546487 0 155.144844 69.598357 155.144844 155.145868C905.680745 172.786343 836.082389 242.383676 750.535901 242.383676zM727.264431 757.780141c36.090388 0 65.451331-29.372206 65.451331-65.474882 0-36.090388-29.360943-65.452355-65.451331-65.452355s-65.451331 29.361967-65.451331 65.452355C661.8131 728.407935 691.174043 757.780141 727.264431 757.780141zM261.828875 324.343242c-36.090388 0-65.452355 29.360943-65.452355 65.451331s29.361967 65.452355 65.452355 65.452355 65.452355-29.361967 65.452355-65.452355S297.919263 324.343242 261.828875 324.343242zM750.535901 9.666922c-42.773756 0-77.572934 34.798154-77.572934 77.572934 0 42.772732 34.798154 77.57191 77.572934 77.57191 42.772732 0 77.57191-34.798154 77.57191-77.57191C828.107811 44.465076 793.309657 9.666922 750.535901 9.666922z"  horiz-adv-x="1024" />

    
    <glyph glyph-name="xiangxidizhi" unicode="&#59003;" d="M32 640C19.2 640 6.4 646.4 0 659.2c-6.4 19.2 0 32 19.2 38.4l544 192c19.2 6.4 32 0 38.4-19.2s0-32-19.2-38.4L44.8 640C38.4 640 38.4 640 32 640zM544-128l-448 0C76.8-128 64-115.2 64-96l0 768C64 691.2 76.8 704 96 704S128 691.2 128 672L128-64l384 0L512 832c0 19.2 12.8 32 32 32C563.2 864 576 851.2 576 832l0-928C576-115.2 563.2-128 544-128zM928-128l-384 0C524.8-128 512-115.2 512-96S524.8-64 544-64L896-64 896 480C896 499.2 908.8 512 928 512S960 499.2 960 480l0-576C960-115.2 947.2-128 928-128zM992 448c-6.4 0-6.4 0-12.8 0l-448 192C512 646.4 505.6 665.6 512 684.8 518.4 704 537.6 710.4 556.8 704l448-192C1024 505.6 1030.4 486.4 1024 467.2 1017.6 454.4 1004.8 448 992 448zM384 512 256 512C236.8 512 224 524.8 224 544 224 563.2 236.8 576 256 576l128 0c19.2 0 32-12.8 32-32C416 524.8 403.2 512 384 512zM384 352 256 352C236.8 352 224 364.8 224 384S236.8 416 256 416l128 0c19.2 0 32-12.8 32-32S403.2 352 384 352zM800 352l-128 0C652.8 352 640 364.8 640 384s12.8 32 32 32l128 0C819.2 416 832 403.2 832 384S819.2 352 800 352zM800 192l-128 0c-19.2 0-32 12.8-32 32s12.8 32 32 32l128 0c19.2 0 32-12.8 32-32S819.2 192 800 192zM800 32l-128 0c-19.2 0-32 12.8-32 32s12.8 32 32 32l128 0c19.2 0 32-12.8 32-32S819.2 32 800 32zM384-128c-19.2 0-32 12.8-32 32L352 192l-64 0 0-288C288-115.2 275.2-128 256-128c-19.2 0-32 12.8-32 32l0 320C224 243.2 236.8 256 256 256l128 0c19.2 0 32-12.8 32-32l0-320C416-115.2 403.2-128 384-128z"  horiz-adv-x="1027" />

    
    <glyph glyph-name="inboxinstagram" unicode="&#59068;" d="M647.9 545.5c-3.9 3.9-7.9 7.9-7.9 15.8l0 55.1c0 7.9 3.9 11.8 7.9 15.8 3.9 3.9 7.9 7.9 15.8 7.9l55.1 0c7.9 0 11.8-3.9 15.8-7.9 3.9-3.9 7.9-7.9 7.9-15.8l0-55.1c0-7.9 0-11.8-3.9-15.8-3.9-3.9-11.8-7.9-19.7-7.9l-55.1 0C655.8 537.6 651.8 541.5 647.9 545.5zM1024 384c0-282.8-229.2-512-512-512S0 101.2 0 384 229.2 896 512 896 1024 666.8 1024 384zM819.2 607.4c0 46.3-37.5 83.8-83.8 83.8L288.6 691.2c-46.4 0-83.8-37.5-83.8-83.8l0-446.7c0-46.4 37.5-83.8 83.8-83.9l446.7 0c46.4 0 83.8 37.5 83.8 83.8L819.1 607.4zM512 281.6c29.7 0 52.9 10.2 72.7 30.7 19.8 20.5 29.7 44.4 29.7 71.7s-9.9 51.2-29.7 71.7c-19.8 20.5-42.9 30.7-72.7 30.7-26.4 0-52.9-10.2-72.7-30.7-19.8-20.5-29.7-44.4-29.7-71.7s9.9-51.2 29.7-71.7C459.1 291.8 482.3 281.6 512 281.6zM682.7 379.3c0-92.5-76.4-167.6-170.7-167.6s-170.7 75-170.7 167.6c0 19.6 3.4 38.4 9.7 55.9l-95 0L256 128l512 0L768 435.2l-95 0C679.2 417.7 682.7 398.9 682.7 379.3z"  horiz-adv-x="1024" />

    
    <glyph glyph-name="fanhuidingbu" unicode="&#58904;" d="M39.3846 896l945.230769 0 0-157.538462-945.230769 0L39.3846 896zM984.6154 187.0769l-236.307692 0 0-315.076923-472.615385 0L275.692323 187.076923l-236.307692 0 472.6154 472.6154L984.6154 187.0769z"  horiz-adv-x="1024" />

    
    <glyph glyph-name="wechat" unicode="&#59537;" d="M331.428571 632.571429q0 23.428571-14.285714 37.714286t-37.714286 14.285714q-24.571429 0-43.428571-14.571429t-18.857143-37.428571q0-22.285714 18.857143-36.857143t43.428571-14.571429q23.428571 0 37.714286 14t14.285714 37.428571zm424.571429-289.714286q0 16-14.571429 28.571429t-37.428571 12.571429q-15.428571 0-28.285714-12.857143t-12.857143-28.285714q0-16 12.857143-28.857143t28.285714-12.857143q22.857143 0 37.428571 12.571429t14.571429 29.142857zm-134.857143 289.714286q0 23.428571-14 37.714286t-37.428571 14.285714q-24.571429 0-43.428571-14.571429t-18.857143-37.428571q0-22.285714 18.857143-36.857143t43.428571-14.571429q23.428571 0 37.428571 14t14 37.428571zm362.857143-289.714286q0 16-14.857143 28.571429t-37.142857 12.571429q-15.428571 0-28.285714-12.857143t-12.857143-28.285714q0-16 12.857143-28.857143t28.285714-12.857143q22.285714 0 37.142857 12.571429t14.857143 29.142857zm-152 226.857143q-17.714286 2.285714-40 2.285714-96.571429 0-177.714286-44t-127.714286-119.142857-46.571429-164.285714q0-44.571429 13.142857-86.857143-20-1.714286-38.857143-1.714286-14.857143 0-28.571429 0.857143t-31.428571 3.714286-25.428571 4-31.142857 6-28.571429 6l-144.571429-72.571429 41.142857 124.571429q-165.714286 116-165.714286 280 0 96.571429 55.714286 177.714286t150.857143 127.714286 207.714286 46.571429q100.571429 0 190-37.714286t149.714286-104.285714 78-148.857143zm338.285714-320.571429q0-66.857143-39.142857-127.714286t-106-110.571429l31.428571-103.428571-113.714286 62.285714q-85.714286-21.142857-124.571429-21.142857-96.571429 0-177.714286 40.285714t-127.714286 109.428571-46.571429 150.857143 46.571429 150.857143 127.714286 109.428571 177.714286 40.285714q92 0 173.142857-40.285714t130-109.714286 48.857143-150.571429z"  horiz-adv-x="1171" />

    
    <glyph glyph-name="xiala" unicode="&#58894;" d="M972.838375 662.838275c15.319322-15.477939 27.804007-28.100774 43.005646-43.46103-167.688762-171.229501-334.75329-341.814301-503.593304-514.220637C343.610253 276.734043 176.069875 447.190926 8.155979 618.021326c15.140239 13.528486 28.904092 25.828971 36.456303 32.582981C102.486983 596.029861 164.429441 540.079029 223.562844 481.293559c90.002299-89.475281 178.423545-180.552081 266.599191-271.833548 16.09194-16.659891 25.511737-17.96976 42.483746-0.450267 139.874522 144.366961 280.757028 287.756638 421.235317 431.540299C960.33834 647.155669 965.900165 654.63113 972.838375 662.838275z"  horiz-adv-x="1024" />

    
    <glyph glyph-name="shangla" unicode="&#58909;" d="M51.233258 108.96853c-12.453985 12.837735-24.795403 25.562904-39.823075 41.056193 166.762644 169.331215 333.197821 338.334962 501.280568 509.006746 167.576195-170.011732 333.673672-338.529396 499.899066-507.16986-14.377854-12.894019-28.029141-25.133103-41.117594-36.870754-50.557857 49.611273-105.649088 102.589317-159.52255 156.774896-95.533423 96.086024-190.442612 192.796282-285.275051 289.578174-10.739899 10.959916-18.343277 11.517634-29.35436 0.271184-131.145475-133.96988-262.597951-267.642992-394.055544-401.305871C86.620177 143.388398 69.479318 126.948523 51.233258 108.96853z"  horiz-adv-x="1024" />

    
    <glyph glyph-name="xiazai" unicode="&#58907;" d="M341.333333 70.433829 377.025977 106.126473 486.760332-3.607882 486.760332 444.16482 537.242101 444.16482 537.242101-3.607882 646.975239 106.126473 682.672748 70.433829 512.003649-100.235271ZM664.688375 180.163318l0 50.486634 114.205514 0c94.005022 0 170.483004 76.475549 170.483004 170.478138 0 89.351416-69.868548 163.951414-159.064277 169.833494l-50.216613 3.357018-6.120477 49.995244c-13.698094 111.962636-109.124983 196.394075-221.970661 196.394075-112.849327 0-208.278649-84.432655-221.976743-196.39894l-6.120477-49.994028-50.22391-3.353369c-89.183566-5.880863-159.052114-80.480861-159.052114-169.833494 0-94.002589 76.475549-170.478138 170.478138-170.478138l114.204297 0 0-50.486634L245.108544 180.163318c-121.840297 0-220.964772 99.124475-220.964772 220.963556 0 56.4125 21.283008 110.087085 59.926423 151.135146 38.454886 40.84737 90.396228 65.381577 146.257739 69.08646l8.543368 0.566801 1.03873 8.499581C256.68904 767.681631 373.664094 871.194555 512.003649 871.194555c138.337122 0 255.308527-103.512924 272.087536-240.778477l1.03873-8.499581 8.543368-0.566801c55.861512-3.704883 107.802853-28.240307 146.256523-69.08646 38.643414-41.049277 59.927639-94.722645 59.927639-151.135146 0-121.839081-99.124475-220.963556-220.964772-220.963556L664.688375 180.164535z"  horiz-adv-x="1024" />

    
    <glyph glyph-name="riqixuanze" unicode="&#59367;" d="M343.242482 691.749106 679.999249 691.749106 679.999249 747.874381 343.242482 747.874381 343.242482 804.00068 287.116183 804.00068 287.116183 747.874381 287.116183 691.749106 287.116183 635.615645 343.242482 635.615645ZM455.495078 130.487146l112.252597 0 0-56.126298-112.252597 0 0 56.126298ZM230.989885 354.985176l112.252597 0 0-56.119135-112.252597 0 0 56.119135ZM455.495078 242.739742l112.252597 0 0-56.126298-112.252597 0 0 56.126298ZM230.989885 130.487146l112.252597 0 0-56.126298-112.252597 0 0 56.126298ZM230.989885 242.739742l112.252597 0 0-56.126298-112.252597 0 0 56.126298ZM679.999249 242.739742l112.252597 0 0-56.126298-112.252597 0 0 56.126298ZM679.999249 354.985176l112.252597 0 0-56.119135-112.252597 0 0 56.119135ZM455.495078 354.985176l112.252597 0 0-56.119135-112.252597 0 0 56.119135ZM455.495078 467.243913l112.252597 0 0-56.126298-112.252597 0 0 56.126298ZM792.251845 747.874381 792.251845 804.00068l-56.126298 0 0-56.126298 0-56.126298 0-56.133462 56.126298 0 0 56.133462 112.252597 0 0-112.252597L118.738311 579.495486 118.738311 691.749106l112.252597 0 0 56.126298L62.612013 747.875404l0-785.766131 898.017704 0 0 785.766131L792.251845 747.875404zM904.503419 18.235572 118.738311 18.235572 118.738311 523.370211l785.766131 0L904.504442 18.235572zM679.999249 467.243913l112.252597 0 0-56.126298-112.252597 0 0 56.126298Z"  horiz-adv-x="1024" />

    
    <glyph glyph-name="download" unicode="&#58919;" d="M831.513034 576.136995h-95.945189c-17.662265 0-31.980365-14.3181-31.980365-31.980365 0-17.662265 14.3181-31.980365 31.980365-31.980366h64.218604c17.520025 0 31.722492-14.202467 31.722492-31.722492V32.213935c0-17.520025-14.202467-31.722492-31.722492-31.722492H159.66442c-17.520025 0-31.722492 14.202467-31.722493 31.722492V480.453772c0 17.520025 14.202467 31.722492 31.722493 31.722492h64.218603c17.662265 0 31.980365 14.3181 31.980366 31.980366 0 17.662265-14.3181 31.980365-31.980366 31.980365H127.937834c-35.322483 0-63.956637-28.634154-63.956637-63.956637v-511.693008c0-35.322483 28.634154-63.956637 63.956637-63.956638h703.5752c35.322483 0 63.956637 28.634154 63.956638 63.956638V512.180358c0 35.32146-28.634154 63.956637-63.956638 63.956637zM310.382073 374.963183c-12.388145 12.388145-32.473599 12.388145-44.862767 0l-0.364297-0.364297c-12.388145-12.388145-12.388145-32.473599 0-44.862767l190.186573-190.186574c5.818519-6.813173 14.465456-11.137665 24.126491-11.137664h0.515746c9.662057 0 18.307971 4.324492 24.12649 11.137664L694.296883 329.736119c12.388145 12.388145 12.388145 32.473599 0 44.862767l-0.364297 0.364297c-12.388145 12.388145-32.473599 12.388145-44.862767 0L511.706311 237.599675V800.256402c0 17.520025-14.202467 31.722492-31.722492 31.722492h-0.515746c-17.520025 0-31.722492-14.202467-31.722493-31.722492v-562.656727L310.382073 374.963183z"  horiz-adv-x="1024" />

    
    <glyph glyph-name="dingwei" unicode="&#58898;" d="M259.599 576.694c3.806-14.583 8.086-30.436 12.841-47.558 4.758-17.123 10.145-34.561 16.169-52.313a672.748 672.748 0 0 1 20.451-52.795c7.61-17.435 15.849-33.767 24.733-48.983V0.28L95.997-58.688V535.796l163.602 40.898m71.339 32.339c0 3.17-0.159 6.184-0.474 9.036a81.163 81.163 0 0 0-0.48 9.04c0 28.532 5.548 55.165 16.646 79.898 11.1 24.729 26.158 46.447 45.179 65.154 19.024 18.703 41.221 33.449 66.581 44.229 25.369 10.783 52.638 16.17 81.805 16.17 29.171 0 56.437-5.387 81.805-16.17 25.363-10.779 47.555-25.525 66.582-44.229 19.021-18.707 34.079-40.426 45.178-65.154 11.099-24.733 16.647-51.367 16.647-79.898v-11.416c0-3.805-0.318-7.609-0.954-11.414-3.805-33.61-11.251-65.79-22.349-96.546-11.101-30.755-25.206-60.4-42.328-88.934-17.12-28.538-36.779-55.958-58.976-82.275-22.19-26.317-45.973-51.522-71.336-75.616-4.438-4.445-9.194-6.665-14.268-6.665-5.071 0-9.828 2.218-14.269 6.665-25.996 24.094-50.097 49.454-72.288 76.089-22.189 26.634-41.852 54.534-58.972 83.704-17.121 29.173-31.23 59.453-42.33 90.838-11.094 31.39-18.23 63.888-21.399 97.494m209.257 105.58c-12.681 0-24.414-2.217-35.19-6.658-10.78-4.436-20.134-10.619-28.062-18.546-7.927-7.928-14.271-17.278-19.022-28.061-4.759-10.781-7.135-22.193-7.135-34.239 0-12.052 2.376-23.462 7.135-34.242 4.753-10.781 11.096-20.136 19.022-28.063 7.928-7.922 17.281-14.107 28.062-18.546 10.776-4.439 22.51-6.657 35.19-6.657 12.684 0 24.574 2.218 35.667 6.657 11.101 4.438 20.614 10.624 28.541 18.546 7.924 7.927 14.27 17.281 19.021 28.063 4.76 10.78 7.136 22.19 7.136 34.242 0 12.046-2.376 23.458-7.136 34.239-4.753 10.782-11.097 20.133-19.021 28.061-7.927 7.927-17.438 14.11-28.541 18.546-11.092 4.441-22.983 6.658-35.667 6.658M392.764 298c18.392-20.293 36.303-38.681 53.742-55.166 17.439-16.488 33.131-31.073 47.083-43.756 16.487-14.586 32.022-27.582 46.606-38.998 7.611 6.339 16.17 13.632 25.682 21.877 8.243 6.977 17.756 15.854 28.537 26.633 10.783 10.779 23.145 22.828 37.097 36.148v-303.426l-238.747 58.969V298m535.514 297.72v-595.44l-237.796-58.97v364.3a193.187 193.187 0 0 1 10.938 11.893 196.545 196.545 0 0 0 10.936 11.891c12.689 13.948 24.415 30.593 35.195 49.936 10.781 19.34 20.451 39.949 29.011 61.826 8.563 21.877 16.168 43.754 22.829 65.63 6.657 21.876 12.526 42.327 17.596 61.35l111.291 27.584m0 0z"  horiz-adv-x="1024" />

    
    <glyph glyph-name="whatsapp" unicode="&#59280;" d="M746.56 282.368c-12.8 6.4-75.328 36.992-87.04 41.216-11.648 4.288-20.16 6.4-28.672-6.4-8.448-12.608-32.896-41.152-40.32-49.6-7.424-8.32-14.848-8.96-27.52-3.2-12.8 6.4-53.888 19.84-102.528 63.36-37.888 33.92-63.36 75.52-70.848 88.32-7.424 12.8-0.832 19.84 5.568 26.24 5.76 5.76 12.8 14.72 19.2 22.4 6.272 7.68 8.32 12.8 12.672 21.12 4.224 8.96 2.112 16-1.088 22.4-3.2 6.4-28.672 69.12-39.296 94.08-10.24 24.96-20.8 21.76-28.672 21.76-7.36 0.64-15.872 0.64-24.32 0.64-8.576 0-22.4-3.2-34.048-15.36-11.648-12.8-44.544-43.52-44.544-105.6s45.632-122.24 51.968-131.2c6.4-8.32 89.856-136.32 217.6-191.36 30.464-12.8 54.144-20.48 72.704-26.88 30.464-9.6 58.24-8.32 80.192-5.12 24.512 3.84 75.392 30.72 86.016 60.8 10.88 30.08 10.88 55.04 7.68 60.8-3.2 5.76-11.52 8.96-24.32 14.72M514.56-32h-0.64c-75.52 0-150.4 20.48-215.68 58.88l-15.36 9.152-160-41.6 42.88 155.52-10.24 16a420.736 420.736 0 0 0-64.64 224.384c0 232.32 190.08 421.76 424.192 421.76 113.28 0 219.52-44.16 299.52-124.16a417.728 417.728 0 0 0 124.16-298.24c-0.192-232.32-190.272-421.76-423.872-421.76M875.52 748.8A517.888 517.888 0 0 1 513.92 896C233.088 896 4.48 668.416 4.288 388.608c0-89.408 23.424-176.64 68.032-253.696L0-128l270.272 70.528a513.088 513.088 0 0 1 243.648-61.76h0.256c280.96 0 509.696 227.648 509.824 507.52 0 135.488-52.928 263.04-149.12 358.912"  horiz-adv-x="1024" />

    
    <glyph glyph-name="youxiang" unicode="&#58889;" d="M149.6 724.2h691.9c47.2 0 85.9-37.7 86.5-83.9L495.7 403 63.5 640c0.4 46.4 38.8 84.2 86.1 84.2z m-86.1-175l-0.4-419.6c0-46.7 38.9-84.9 86.5-84.9h691.9c47.6 0 86.5 38.2 86.5 84.9V549.4L505.9 323.2c-6.5-3.5-14.3-3.5-20.7 0l-421.7 226z"  horiz-adv-x="1024" />

    
    <glyph glyph-name="daoluguanli" unicode="&#59413;" d="M1008.89424-96.658c-10.836-2.847-22.076 3.523-24.98 14.154L869.21224 337.611h42.227l111.87-409.755c2.903-10.631-3.585-21.661-14.415-24.514zM730.57524 845.4c-2.904 10.631 3.59 21.661 14.42 24.514 10.836 2.847 22.071-3.518 24.974-14.154l108.905-398.873h-42.227L730.57524 845.4zM512.64724 527.927c-12.669 0-22.936 10.856-22.936 24.539v85.032c0 13.289 10.267 24.165 22.936 24.165 12.649 0 22.947-10.877 22.947-24.165v-85.032c0-13.682-10.298-24.539-22.947-24.539z m0 229.215c-12.669 0-22.936 10.354-22.936 23.402V845.4c0 12.643 10.267 23.023 22.936 23.023 12.649 0 22.947-10.38 22.947-23.023v-64.856c0-13.048-10.298-23.402-22.947-23.402z m-0.005-465.066c12.648 0 22.947-10.482 22.947-22.839v-110.421c0-12.761-10.293-22.885-22.947-22.885-12.664 0-22.936 10.124-22.936 22.885V269.237c0 12.357 10.272 22.839 22.936 22.839z m-325.287 164.59h-42.227L254.03424 855.539c2.904 10.631 14.139 17.001 24.974 14.149 10.836-2.847 17.324-13.878 14.42-24.508L187.35524 456.666zM40.09024-82.729c-2.904-10.631-14.144-16.996-24.974-14.149h-0.005C4.28024-94.031-2.20776-83 0.69524-72.37l111.87 409.76h42.227L40.09024-82.729zM512.64224 71.772c12.398 0 22.491-10.636 22.491-23.203v-128.006c0-12.91-10.088-23.156-22.491-23.156-12.413 0-22.475 10.247-22.475 23.156V48.57c0 12.566 10.062 23.202 22.475 23.202z"  horiz-adv-x="1024" />

    
    <glyph glyph-name="mianfei-xianxing" unicode="&#59569;" d="M137.6 140C91.2 210.4 64 294.4 64 384.8c0 247.2 200.8 448 448 448 90.4 0 174.4-27.2 245.6-73.6l-46.4-46.4c-58.4 35.2-126.4 56-198.4 56-212 0-384-172-384-384 0-72.8 20-140.8 56-198.4l-47.2-46.4zM320 448v-64h62.4l64 64H320z m56.8 192l-45.6-45.6L461.6 464l45.6 45.6L376.8 640z m490.4 138.4l45.6-45.6-58.4-58.4C920 596 960 495.2 960 384.8c0-247.2-200.8-448-448-448-110.4 0-211.2 40-289.6 106.4l-63.2-63.2-45.6 45.6M896 384.8c0 92.8-32.8 177.6-87.2 244L628.8 448H704v-64H564.8l-20-20V320H704v-64H544.8v-192h-64V256h-44l-168.8-167.2c66.4-54.4 151.2-87.2 244-87.2 212-0.8 384 172 384 383.2z"  horiz-adv-x="1024" />

    
    <glyph glyph-name="home" unicode="&#58891;" d="M966.656 393.142857a34.157714 34.157714 0 1 1 46.445714 50.029714L535.259429 886.857143a34.157714 34.157714 0 0 1-46.518858 0L10.971429 443.245714a34.157714 34.157714 0 0 1 46.445714-50.029714L512 815.250286l454.656-422.107429zM580.242286 213.357714V-25.6c0-18.870857 15.36-34.157714 34.157714-34.157714h238.957714a34.157714 34.157714 0 0 1 34.084572 34.157714V384a34.157714 34.157714 0 0 1-68.242286 0v-375.442286H648.557714V247.442286A34.157714 34.157714 0 0 1 614.4 281.6H406.747429a34.157714 34.157714 0 0 1-34.084572-34.157714v-238.884572H204.8V384a34.157714 34.157714 0 0 1-68.242286 0v-409.6c0-18.870857 15.286857-34.157714 34.084572-34.157714h236.105143a34.157714 34.157714 0 0 1 34.157714 34.157714V213.357714h139.337143z m273.115428 546.084572v-102.4a34.157714 34.157714 0 0 1 68.242286 0V793.6a34.157714 34.157714 0 0 1-34.157714 34.157714H716.8a34.157714 34.157714 0 0 1 0-68.315428h136.557714z"  horiz-adv-x="1024" />

    
    <glyph glyph-name="diban-hui" unicode="&#58884;" d="M1022.5159424 148.92521738999994L796.93913044 683.18608696C782.69217391 716.42898587 744.70029023 740.17391304 709.08289893 740.17391304H317.29159457c-35.6173913 0-73.60927499-26.11942066-87.85623263-56.98782608L3.8585511 148.92521738999994c-11.87246414-30.86840543-11.87246414-61.73681197 4.74898476-85.48173913 14.24695652-23.74492717 42.74086957-35.6173913 75.98376849-35.6173913h857.19188368c33.24289892 0 61.73681197 14.24695652 75.98376849 35.6173913 14.24695652 23.74492717 16.6214489 54.6133337 4.74898588 85.48173913zM398.02434782 336.51014454999995l21.37043479 154.34202936h161.46550762l21.37043478-154.34202936h-204.20637719z m208.95536196-47.48985433l28.49391303-213.70434782H360.03246414l28.49391305 213.70434782H606.97970978z m-408.41275325 201.83188369H369.53043479l-21.37043479-154.34202936H132.08115979l66.48579674 154.34202936z m225.57681196 47.48985545l21.37043478 154.34202824h106.85217391l21.37043479-154.34202824h-149.59304348z m204.20637607-47.48985545h189.95942066c2.37449238 0 4.74898588 0 7.12347825 2.37449239L891.91884021 336.51014454999995H649.72057934l-21.37043478 154.34202936z m123.47362393 173.33797065l52.2388402-125.8481152h-182.83594239l-21.37043479 154.34202824h106.85217392c18.9959424 0 40.36637718-14.24695652 45.11536306-28.49391304z m-479.64753698 0c7.12347826 14.24695652 28.49391305 28.49391305 45.11536306 28.49391304h80.73275325l-21.37043478-154.34202824h-159.09101411l54.61333258 125.8481152zM46.59942066 89.56289892999996c-7.12347826 9.49797065-7.12347826 23.74492717 0 40.36637606L113.08521739 289.02029022h230.32579673l-28.49391305-213.70434782H84.59130435c-18.9959424 0-30.86840543 4.74898588-37.99188369 14.24695653z m930.80115868 0c-7.12347826-9.49797065-18.9959424-14.24695652-35.61739131-14.24695653H685.33797064l-28.49391304 213.70434782h254.07072501l66.48579673-159.09101523c7.12347826-16.6214489 7.12347826-30.86840543 0-40.36637606z"  horiz-adv-x="1024" />

    
    <glyph glyph-name="chanpin" unicode="&#59105;" d="M1024 106.666667c0-129.6-105.045333-234.666667-234.666667-234.666667-129.6 0-234.666667 105.045333-234.666666 234.666667v170.645333A64 64 0 0 0 618.688 341.333333H789.333333c129.6 0 234.666667-105.045333 234.666667-234.666666z m-85.333333 0c0 82.304-66.858667 149.333333-149.333334 149.333333h-149.333333v-149.333333c0-82.304 66.858667-149.333333 149.333333-149.333334 82.304 0 149.333333 66.858667 149.333334 149.333334zM0 106.666667c0 129.621333 105.066667 234.666667 234.666667 234.666666h170.645333A64 64 0 0 0 469.333333 277.312V106.666667c0-129.621333-105.066667-234.666667-234.666666-234.666667-129.621333 0-234.666667 105.066667-234.666667 234.666667z m85.333333 0c0-82.474667 67.029333-149.333333 149.333334-149.333334 82.474667 0 149.333333 67.029333 149.333333 149.333334v149.333333h-149.333333c-82.474667 0-149.333333-67.029333-149.333334-149.333333z m938.666667 554.666666c0-129.621333-105.066667-234.666667-234.666667-234.666666h-170.645333A64 64 0 0 0 554.666667 490.688V661.333333c0 129.621333 105.066667 234.666667 234.666666 234.666667 129.621333 0 234.666667-105.066667 234.666667-234.666667z m-85.333333 0c0 82.474667-67.029333 149.333333-149.333334 149.333334-82.474667 0-149.333333-67.029333-149.333333-149.333334v-149.333333h149.333333c82.474667 0 149.333333 67.029333 149.333334 149.333333zM0 661.333333C0 790.933333 105.045333 896 234.666667 896c129.6 0 234.666667-105.045333 234.666666-234.666667v-170.645333A64 64 0 0 0 405.312 426.666667H234.666667C105.066667 426.666667 0 531.712 0 661.333333z m85.333333 0c0-82.304 66.858667-149.333333 149.333334-149.333333h149.333333v149.333333c0 82.304-66.858667 149.333333-149.333333 149.333334-82.304 0-149.333333-66.858667-149.333334-149.333334z"  horiz-adv-x="1024" />

    
    <glyph glyph-name="chakan" unicode="&#58895;" d="M1015.122 391.759C841.385 612.878 660.282 719.397 476.9 708.347c-66.148-3.985-132.224-23.542-196.392-58.132-50.591-27.271-100.097-63.905-147.143-108.884C53.753 465.217 8.8 391.811 6.926 388.724a30.534 30.534 0 0 1-4.432-17.085 30.543 30.543 0 0 1 4.432-17.167c1.875-3.088 46.827-76.492 126.439-152.608 47.046-44.978 96.552-81.61 147.143-108.882 64.168-34.59 130.244-54.15 196.392-58.133a429.4 429.4 0 0 1 25.849-0.78c174.551 0 346.813 106.654 512.373 317.368a30.568 30.568 0 0 1 6.529 20.16 30.57 30.57 0 0 1-6.529 20.162z m-534.225-295.64C350.982 103.834 243.94 181.38 177.02 245.074c-53.876 51.28-91.296 102.203-107.92 126.523 16.622 24.318 54.041 75.24 107.92 126.523 66.92 63.695 173.963 141.242 303.878 148.958 157.252 9.33 315.862-83.331 471.75-275.48-155.889-192.152-314.512-284.82-471.75-275.48zM512.075 517.078c-82.945 0-150.426-67.481-150.426-150.426 0-82.946 67.481-150.426 150.426-150.426s150.426 67.48 150.426 150.426c0 82.945-67.48 150.426-150.426 150.426z m-0.62-239.453c-49.091 0-89.029 39.937-89.029 89.028 0 49.09 39.938 89.028 89.028 89.028s89.028-39.938 89.028-89.028c0-49.091-39.939-89.028-89.028-89.028z"  horiz-adv-x="1024" />

    
    <glyph glyph-name="upload-demo" unicode="&#59089;" d="M512 856C251.3 856 40 644.7 40 384s211.3-472 472-472 472 211.3 472 472S772.7 856 512 856z m249.5-584.5c-10-36.7-22-54.8-56.4-61.4 0 0-88.1-6.6-180.4-6.6-101.5 0-208 6.6-208 6.6-34.5 4.4-50.3 27-58.1 61.4 0 0-10 59.6-10 118.4 0 57.3 10 114 10 114 10 35.6 19.2 57 58.1 61.4 0 0 96 5 192.5 5 97.6 0 195.8-5 195.8-5 36.7-4.4 45.4-24.7 56.4-61.4 0 0 10-61.8 10-121.7 0.1-56.2-9.9-110.7-9.9-110.7zM457.8 289.8l151.1 97.9-151.1 97.9z"  horiz-adv-x="1024" />

    
    <glyph glyph-name="leiyanliaoyouqix" unicode="&#59017;" d="M927.104 580.672v2.496a32.576 32.576 0 0 1-4.48 16.384c-1.408 84.736-48.64 159.616-119.36 211.584C731.264 864.128 634.24 895.744 527.616 895.808 420.992 895.744 323.968 864.128 251.904 811.136c-70.72-52.032-117.888-126.848-119.296-211.648a33.088 33.088 0 0 1-4.48-16.32v-4.224H128v-539.52c0-6.336 1.92-12.544 5.248-17.792 17.728-51.648 69.184-83.584 133.76-108.16 70.208-25.856 160.896-40.896 260.48-40.96 99.648 0.064 190.4 15.104 260.608 40.96 64.448 24.576 115.904 56.512 133.76 108.16a32.96 32.96 0 0 1 5.184 17.728V578.944v1.728zM552.96 297.856c2.816-32.192 4.096-60.16 4.096-84.288 0.064-71.36-11.392-109.376-22.4-127.104-11.328-17.408-19.392-17.408-25.152-17.92a19.008 19.008 0 0 0-5.12 0.64l-4.544 1.088c-4.16 0.064-12.16 5.632-20.032 22.656-24 50.304-28.16 166.144-27.776 210.88 0 12.096 0.256 19.072 0.256 19.072l-0.128 2.368a125.888 125.888 0 0 1-8.064 37.184c-5.12 13.312-18.688 29.632-39.872 30.848-1.024 0.192-2.368 0.192-3.328 0.192-21.568-0.448-35.584-13.12-46.4-23.552-10.624-10.752-19.84-21.632-24.832-24.96-10.24-7.552-22.592-13.12-30.72-12.8a18.496 18.496 0 0 0-8.32 1.792c-11.2 3.648-26.24 33.92-31.936 54.976-7.168 22.656-10.624 50.176-22.656 77.76-3.584 8.256-7.552 16.384-11.456 24.512 70.272-32.192 179.072-50.816 303.04-51.2 101.76 0 193.92 13.248 262.272 35.392 8.704 2.88 17.024 5.888 24.96 8.96-10.24-20.48-16.64-42.368-21.12-62.08-7.36-34.112-8.384-62.72-8.512-68.608-2.24-30.848-8.768-65.152-24.384-86.144-8.32-11.904-24.32-20.928-35.328-20.48a22.4 22.4 0 0 0-17.472 8c-5.76 5.76-8.96 18.56-8.96 32.64-0.576 38.592-8.896 64.256-23.36 81.28A60.992 60.992 0 0 1 628.48 390.4c-9.984 0-17.344-2.048-20.736-3.2a70.912 70.912 0 0 1-46.72-38.528 95.808 95.808 0 0 1-8.064-50.88z m304 279.68h4.352v-19.072a81.6 81.6 0 0 0-11.968-11.136c-47.104-37.312-174.592-68.416-321.728-67.84-98.304-0.064-187.264 13.056-250.048 33.472-31.36 10.176-56.128 22.272-71.68 34.368-5.12 3.904-8.96 7.616-12.032 11.136v19.072h4.48c-0.32 1.472 1.28 8.64 15.552 19.712 20.608 16.192 63.296 33.92 118.208 45.76 55.04 12.16 122.624 19.392 195.456 19.392 97.152 0 185.088-13.056 246.016-32.896 30.4-9.856 54.016-21.568 67.776-32.256 14.272-11.072 15.872-18.24 15.616-19.712zM291.008 758.144C350.08 801.92 434.112 830.08 527.616 829.952c93.44 0.064 177.536-28.16 236.608-71.808 32.512-24.064 57.152-52.16 72.832-82.752-28.16 12.992-61.76 23.424-99.84 31.872-60.608 13.312-132.416 20.928-209.6 20.928-103.04-0.064-196.16-13.44-266.368-36.096-15.616-5.12-29.952-10.816-43.264-16.896 15.744 30.656 40.448 58.816 73.024 82.944z m569.6-712.256c-1.28-16.64-33.536-48.896-95.232-70.784-60.608-22.4-144.96-36.864-237.824-36.8-92.8 0-177.152 14.464-237.76 36.8-61.696 21.888-93.952 54.144-95.232 70.784a72.96 72.96 0 0 1-0.64 2.56V463.68c1.92-4.288 4.096-8.576 6.016-12.864 9.216-20.48 12.8-46.464 21.12-73.6 8-23.04 18.944-60.992 52.48-78.784 8.32-4.032 17.216-5.76 25.408-5.696 22.144 0.256 40 10.56 53.76 20.16 12.16 9.024 20.736 20.48 29.568 29.056 8.704 8.832 15.936 12.416 18.56 12.16v-0.064c2.944-0.448 3.392-0.128 6.912-6.976 2.688-6.144 4.288-16.128 5.056-24.32-0.064-2.752-0.256-9.408-0.256-18.88 0-31.232 1.216-93.44 10.24-150.016 4.608-28.352 11.008-55.36 21.184-77.44 9.6-20.672 24.192-40.32 48.576-44.8 3.2-1.088 9.088-2.496 16.96-2.56h1.344c16.448 0 41.152 9.344 57.408 36.8 17.024 28.032 28.16 72.448 28.288 147.84 0 25.664-1.344 55.04-4.352 88.512l-0.128 0.96-0.064 0.896-0.128 4.16a57.6 57.6 0 0 0 4.736 23.68 30.848 30.848 0 0 0 21.504 17.408l1.792 0.512a31.232 31.232 0 0 0 8.576 1.28c6.016-0.256 11.456-1.28 17.28-7.872 5.952-6.72 13.44-22.72 13.824-56 0.384-17.728 2.752-40.384 19.392-58.944 12.8-14.08 30.272-20.928 46.528-20.736 27.904 0.448 51.904 16.192 67.2 36.736 23.424 32.512 29.12 73.216 31.872 106.624l0.064 1.28s0.064 6.592 1.088 17.92c1.92 28.352 12.032 82.944 35.584 115.648v-436.992a31.872 31.872 0 0 1-0.64-2.816z"  horiz-adv-x="1024" />

    
    <glyph glyph-name="whatsapp1" unicode="&#58883;" d="M521.244 893.725c-276.382 0-500.459-222.324-500.459-496.599 0-93.821 26.242-181.567 71.814-256.426l-90.323-266.425 277.081 88.023c71.698-39.333 154.158-61.772 241.887-61.772 276.418 0 500.481 222.356 500.481 496.599 0 274.275-224.063 496.599-500.481 496.599zM770.102 208.53200000000004c-11.774-29.188-65.022-55.826-88.517-57.053-23.47-1.245-24.139-18.191-152.098 37.396-127.943 55.601-204.918 190.791-210.988 199.498-6.074 8.674-49.562 70.65-47.216 133.018 2.362 62.38 36.516 91.809 48.706 104.05 12.176 12.258 26.137 14.454 34.661 14.593 10.076 0.164 16.603 0.301 24.06 0.025 7.451-0.283 18.641 1.558 28.331-24.21 9.684-25.766 32.866-89.094 35.83-95.549 2.963-6.461 4.797-13.94 0.233-22.235-4.578-8.313-6.923-13.505-13.565-20.669-6.678-7.164-14.049-16.025-20.006-21.502-6.644-6.064-13.585-12.679-6.599-25.644 6.981-12.955 31.068-55.423 67.764-90.421 47.161-44.99 87.831-59.914 100.348-66.713 12.549-6.836 20.038-6.076 27.821 2.114 7.746 8.19 33.312 35.83 42.316 48.172 8.999 12.374 17.433 9.951 28.995 5.3 11.555-4.67 73.175-37.674 85.727-44.49 12.539-6.802 20.919-10.306 23.916-15.701 2.997-5.415 2.05-30.79-9.718-59.982z"  horiz-adv-x="1024" />

    
    <glyph glyph-name="guandao" unicode="&#58900;" d="M985.99822222 123.44888889000003V368.64c0 39.02577778-13.88088889 79.98577778-41.41511111 108.43022222s-73.61422222 47.44533333-114.46044444 47.44533333H578.21866667V574.00888889h-1.59288889v0.11377778h-142.22222223v-60.87111112H305.26577778V656.04266667h47.21777777v130.84444444H2.16177778v-130.84444444h47.21777777v-256.56888889c0-39.02577778 13.88088889-73.15911111 41.41511112-101.60355556 27.648-28.44444445 62.23644445-42.89422222 103.08266666-42.89422222h240.52622222V205.36888889h143.81511112v49.49333333h140.40177778V123.44888889000003h-47.21777778v-142.22222222H1021.72444445V123.44888889000003h-35.72622223M481.50755555 528.49777778h49.60711112v-288.99555556h-49.60711112V528.49777778M250.76622222 300.37333333000004c-31.63022222 0-88.74666667 2.38933333-112.75377777 21.16266667-24.46222222 19.11466667-43.12177778 53.248-43.12177778 83.51288889V690.1759999999999H47.78666667v51.2h259.18577778v-51.2h-47.21777778v-222.43555555h176.24177778v-167.25333334H205.25511111M976.21333333 26.624000000000024H717.02755555v51.2h47.21777778V300.37333333000004H576.62577778v178.63111112h253.49688889c31.63022222 0 57.344-10.58133333 78.50666666-32.54044445 21.39022222-22.07288889 31.744-47.55911111 31.744-77.824v-290.816H976.21333333v-51.2m0 0"  horiz-adv-x="1024" />

    
    <glyph glyph-name="lunchuan" unicode="&#58978;" d="M598.379704 638.809302l51.524736-11.257505h4.76279a21.649049 21.649049 0 0 1 4.762791 43.298097L606.173362 679.509514a21.649049 21.649049 0 0 1-9.092601-43.298098zM486.237632 639.675264h51.524736a21.649049 21.649049 0 0 1 0 43.298098h-51.524736a21.649049 21.649049 0 0 1 0-43.298098zM443.372516 664.35518A21.649049 21.649049 0 0 1 417.826638 679.509514l-51.524735-11.257506a21.649049 21.649049 0 0 1 4.76279-43.298097h4.762791L425.187315 638.809302a21.649049 21.649049 0 0 1 18.185201 25.545878zM435.578858 371.227061a21.649049 21.649049 0 0 1 11.690487 5.195772l23.380972 15.587315a21.649049 21.649049 0 0 1-23.813953 35.937421l-21.649049-16.886258a21.649049 21.649049 0 0 1 12.123467-39.83425zM555.081607 390.711205l23.380972-15.587315a21.649049 21.649049 0 0 1 23.813954 35.937421l-23.380973 15.587315a21.649049 21.649049 0 0 1-23.813953-35.937421zM72.307822 8.389006a71.874841 71.874841 0 0 0 99.152643 0 113.441015 113.441015 0 0 1 119.069768-25.978858 112.142072 112.142072 0 0 1 40.700211 25.978858 71.874841 71.874841 0 0 0 99.152643 0 113.873996 113.873996 0 0 1 160.63594 0 71.874841 71.874841 0 0 0 99.152643 0 113.441015 113.441015 0 0 1 160.635941 0 70.142918 70.142918 0 0 0 99.152643 0 21.649049 21.649049 0 1 1 30.741649 30.741649 116.038901 116.038901 0 0 1-160.635941 0 69.276956 69.276956 0 0 0-45.463002-19.484143l122.966596 239.871458a43.298097 43.298097 0 0 1-12.556448 53.689641l-123.399577 92.224947-25.112897 277.107823a90.060042 90.060042 0 0 1-86.596194 90.926004H598.379704v47.627907a21.649049 21.649049 0 1 1-43.298097 0v-48.060888h-43.298097V874.350951a21.649049 21.649049 0 0 1-43.298098 0v-101.317547H374.528541a89.19408 89.19408 0 0 1-86.596194-89.194081l-27.277802-278.839746-123.399577-92.224947a43.298097 43.298097 0 0 1-12.556448-53.689641l123.399577-240.304439a69.709937 69.709937 0 0 0-45.895983 20.350105 116.038901 116.038901 0 0 1-160.635941 0 21.649049 21.649049 0 0 1 30.741649-30.741649zM329.065539 682.1074a46.761945 46.761945 0 0 0 43.298097 47.627907h274.942918a47.194926 47.194926 0 0 0 43.298097-49.792812l21.649049-240.737421L626.956448 506.317125c-51.091755 35.071459-79.235518 53.689641-115.172938 53.68964S447.702326 540.955603 395.311628 506.317125l-86.596195-65.813108z m91.358985-211.727696C468.485412 503.286258 490.134461 516.708668 511.78351 516.708668s43.298097-13.42241 89.627061-43.298097L728.273996 376.422833l129.894292-97.420719L733.036786 30.038055a65.380127 65.380127 0 0 0-10.824524 8.659619 116.038901 116.038901 0 0 1-160.635941 0 70.575899 70.575899 0 0 0-99.152642 0 116.038901 116.038901 0 0 1-160.635941 0 70.575899 70.575899 0 0 0-10.824524-8.659619L165.398732 277.703171zM821.364905-63.918816a71.874841 71.874841 0 0 0-99.152643 0 116.471882 116.471882 0 0 1-160.635941 0 70.142918 70.142918 0 0 0-99.152642 0 116.471882 116.471882 0 0 1-160.635941 0 71.874841 71.874841 0 0 0-99.152643 0 116.471882 116.471882 0 0 1-160.635941 0 21.649049 21.649049 0 1 1 30.741649-30.741649 71.874841 71.874841 0 0 0 99.152643 0 113.873996 113.873996 0 0 1 160.635941 0 71.874841 71.874841 0 0 0 99.152643 0 116.038901 116.038901 0 0 1 160.63594 0 71.874841 71.874841 0 0 0 99.152643 0 113.441015 113.441015 0 0 1 160.635941 0 70.575899 70.575899 0 0 0 99.152643 0 21.649049 21.649049 0 1 1 30.741649 30.741649 113.873996 113.873996 0 0 1-160.635941 0z"  horiz-adv-x="1024" />

    
    <glyph glyph-name="daqiao" unicode="&#58886;" d="M1016.98847 510.577c-43.363 12.06-75.141 39.39-94.45 81.232-15.073 32.662-16.707 62.396-16.722 62.693a22.716 22.716 0 0 1-0.489 3.721c-2.02 23.188-21.528 41.445-45.232 41.445h-60.634a22.714 22.714 0 0 1-2.862 0.188c-12.427 0-22.5-10.074-22.5-22.5 0-117.926-109.783-206.854-255.365-206.854S263.37047 559.43 263.37047 677.356c0 12.426-10.074 22.5-22.5 22.5-0.97 0-1.924-0.068-2.862-0.188h-65.413c-25.043 0-45.417-20.374-45.417-45.417v-4.845c-1.14-9.889-4.852-32.901-16.249-57.597-19.309-41.842-51.087-69.172-94.451-81.232-11.972-3.329-18.979-15.733-15.649-27.706 2.769-9.956 11.812-16.478 21.665-16.478a22.52 22.52 0 0 1 6.041 0.829c40.414 11.239 73.857 33.447 98.643 65.145v-220.369H41.17647c-12.426 0-22.5-10.073-22.5-22.5s10.074-22.5 22.5-22.5h86.002v-163.163H89.52247c-12.426 0-22.5-10.073-22.5-22.5s10.074-22.5 22.5-22.5h43.063c4.127-4.819 10.251-7.878 17.094-7.878s12.967 3.059 17.094 7.878H294.81647c12.426 0 22.5 10.073 22.5 22.5s-10.074 22.5-22.5 22.5h-28.702c0.079 0.766 0.12 1.543 0.12 2.33v84.817c0 12.427-10.074 22.5-22.5 22.5s-22.5-10.073-22.5-22.5v-84.817c0-0.787 0.041-1.564 0.12-2.33h-49.176V646.984c0.32 3.234 0.414 5.172 0.428 5.499a22.72 22.72 0 0 1-0.013 2.185h46.878c6.015-62.689 36.964-119.063 88.704-160.563 55.156-44.24 129.934-68.604 210.558-68.604s155.402 24.364 210.559 68.604c51.74 41.5 82.689 97.874 88.704 160.563h42.099c0.229 0 0.417-0.187 0.417-0.417v-550.417h-44.398c0.079 0.766 0.12 1.543 0.12 2.33v84.817c0 12.427-10.073 22.5-22.5 22.5s-22.5-10.073-22.5-22.5v-84.817c0-0.787 0.041-1.564 0.12-2.33h-28.707c-12.427 0-22.5-10.073-22.5-22.5s10.073-22.5 22.5-22.5h123.271c4.127-4.819 10.251-7.878 17.094-7.878s12.967 3.059 17.094 7.878h47.835c12.427 0 22.5 10.073 22.5 22.5s-10.073 22.5-22.5 22.5h-42.429V266.998h92.436c12.427 0 22.5 10.073 22.5 22.5s-10.073 22.5-22.5 22.5h-92.436V533.37c24.861-32.232 58.581-54.791 99.42-66.147 2.017-0.561 4.045-0.829 6.041-0.829 9.852 0 18.896 6.522 21.665 16.478 3.329 11.972-3.677 24.376-15.65 27.705zM816.23447 289.498V488.9c0 12.426-10.073 22.5-22.5 22.5s-22.5-10.074-22.5-22.5v-176.902h-92.5v85.235c0 12.426-10.073 22.5-22.5 22.5s-22.5-10.074-22.5-22.5v-85.235h-92.5v62.319c0 12.427-10.073 22.5-22.5 22.5-12.426 0-22.5-10.073-22.5-22.5v-62.319h-92.5v85.235c0 12.426-10.074 22.5-22.5 22.5s-22.5-10.074-22.5-22.5v-85.235h-92.5V488.9c0 12.426-10.074 22.5-22.5 22.5s-22.5-10.074-22.5-22.5v-199.402c0-12.427 10.074-22.5 22.5-22.5h550c12.426 0 22.5 10.073 22.5 22.5z"  horiz-adv-x="1033" />

    
    <glyph glyph-name="youtube" unicode="&#58903;" d="M601.37 269.245c-13.288 0-25.148-6.322-36.068-18.03v86.362h-40.805v-269.051h40.805v15.656c11.708-11.861 24.36-18.03 38.442-18.03 24.356 0 36.851 15.026 36.851 43.977V219.897c0 32.898-13.287 49.348-39.225 49.348z m-2.372-155.168c0-10.91-4.748-16.445-14.082-16.445-7.118 0-14.076 3.162-19.614 8.696V230.339c5.538 5.535 10.92 7.908 17.242 7.908 11.071-0.158 16.454-6.489 16.454-19.772v-104.398zM512 896C229.229 896 0 666.77 0 384s229.229-512 512-512c282.77 0 512 229.23 512 512S794.77 896 512 896z m97.278-206.806h50.139V500.97c0-21.986 21.192-22.778 43.181 2.373V689.194h50.298v-245.483h-50.298v27.521c-19.616-20.403-38.434-30.525-58.049-30.525-23.568 0-35.271 14.867-35.271 43.972V689.194z m-113.728 6.329c40.653 0 71.337-25.151 71.337-63.587v-127.17c0-43.972-28.31-67.54-72.127-67.54-43.973 0-72.128 27.521-72.918 68.33V632.728c0 40.807 33.69 63.585 73.708 62.795z m-203.41 80.666l36.064-132.548h3.953l34.64 132.708h57.26l-43.182-129.544c-3.956-12.495-11.705-29.737-15.658-43.182l-6.327-21.985v-138.086h-56.469v131.76c-0.791 6.327-8.698 28.313-22.776 66.748l-44.762 134.13h57.257z m549.333-693.425c-3.953-52.514-43.184-86.367-96.484-87.155-51.721-2.372-129.545-3.958-233.778-3.958-103.605 0-181.268 1.586-232.198 3.958-52.514 2.374-90.948 33.69-96.485 87.155-3.163 50.298-4.746 87.943-4.746 113.723 0 25.94 1.583 63.586 4.746 113.728 3.954 52.514 45.555 86.362 96.485 87.152 50.931 2.373 128.753 3.956 232.988 3.956 104.238 0 182.06-1.583 232.988-3.956 52.513-2.371 93.319-33.689 96.484-87.152 3.166-50.299 4.747-87.943 4.747-113.728 0-25.937-1.581-63.582-4.747-113.723zM444.46 116.45c-18.03-19.615-34.481-19.615-34.481-1.581V267.03H369.17v-167.029c0-22.775 9.49-34.479 28.313-34.479 15.659 0 31.318 8.694 47.138 25.148v-22.145h39.857V267.03H444.46v-150.58z m-74.499 221.286H229.504v-39.227h47.135v-229.827h45.555V298.51h47.768v39.226z m124.64 142.671c14.236 0 21.194 7.117 21.194 20.403V634.942c0 23.566-42.39 23.566-42.39 0V500.81c0-13.286 7.119-20.403 21.196-20.403z m238.684-207.838c-35.276 0-61.214-21.983-62.006-58.842v-88.573c0-37.648 21.988-62.798 58.84-62.005 40.018-0.157 60.421 20.245 60.421 61.844v14.868h-41.594l0.787-10.122c0.788-5.539 0.788-9.331 0-11.704l-2.373-9.492c-2.372-8.542-7.118-9.334-17.241-9.334-14.868-1.577-16.449 14.08-16.449 26.734v37.645h76.87v50.14c0 36.858-20.403 58.841-57.255 58.841z m15.661-78.456H713.67v21.988c0 14.076 5.538 21.195 17.242 21.195 11.703 0 18.034-7.119 18.034-21.195v-21.988z"  horiz-adv-x="1024" />

    
    <glyph glyph-name="jixie_" unicode="&#58887;" d="M1003.94477013 64.57268160000001c-37.8652448-7.64586667-66.68894827-45.57179307-62.92669653-84.22589653 1.21362987-46.29997013 48.72722987-84.58998507 94.29902293-74.57754027 42.7804448 6.6749632 73.6673184 52.4894816 64.32237014 94.6631104-7.03905173 43.08385173-52.91425173 74.21345173-95.69469654 64.1403264m-394.6116736-2.97339307a80.4636448 80.4636448 0 0 1-52.5501632-62.80533333c-6.6142816-41.2027264 21.4205632-85.92497813 63.6548736-92.72130347 48.12041493-11.3474368 98.72877013 31.3723264 95.63401494 80.76705174 1.15294827 52.4288-57.5867264 94.54174827-106.73872534 74.75958506M473.83134827 904.8291552c4.9758816 18.2044448 26.94257813 31.0082368 44.60088853 22.02737813a32.5252736 32.5252736 0 0 0 16.3233184-42.7804448c-83.98317013-233.74506667-168.5731552-467.24740693-252.67768853-700.8104288l68.7521184-20.63170453c41.0206816 114.20254827 80.94909653 228.64782187 121.2416 343.03241493 42.23431147 0.30340693 84.46862187-0.0606816 126.70293333 0.303408 30.28005973 141.1451264 61.71306667 282.10820693 91.6290368 423.31401494 104.19010347 1.5170368 208.38020693-2.42725973 312.57031147-1.51703787 67.3564448-3.88361493 134.89493333 0.84954027 202.13001493-3.70157013v-482.41777814c37.31911147-10.25517013 74.63822187-20.32829653 111.89665173-30.46210346-1.7597632-119.7245632-3.2161184-239.50980693-5.82542186-359.23437014-1.09226667-38.16865173-62.56260693-35.19525973-62.80533334 1.8204448 1.03158507 102.73374827 3.64088853 205.58885973 4.42974827 308.38328854-37.13706667 10.37653333-74.57754027 20.38897813-111.7752896 30.46210346-0.48545173 156.37617813 0 312.7523552-0.30340693 469.12853334-132.5283552-0.42477013-265.11739307 2.60930347-397.64574827 3.3374816-30.76551147-141.1451264-61.77374827-282.22957013-91.9324448-423.55674027-44.3581632-0.2427264-88.89837013 0.1213632-133.43857707-0.2427264-53.15697813-150.4900736-106.07122987-300.98014827-159.3495712-451.34885867 44.0547552-0.1213632 88.04882987 0 132.10358507-0.1213632 3.76225173 42.3556736 22.33078507 83.98317013 56.61582293 110.19757014 45.45042987 37.13706667 113.95982187 40.7779552 163.5972736 9.7697184 38.53274027-22.8162368 63.23010347-64.50441493 69.35893334-108.49848854 32.22186667 0.1820448 64.50441493 0 96.7869632 0.18204374 5.88610347 42.05226667 28.39893333 82.28408853 64.68645973 105.3430528a144.66465173 144.66465173 0 0 0 120.14933333 18.20444373c50.8510816-14.5028736 91.14358507-59.58921493 100.73125867-111.4718816a146.24237013 146.24237013 0 0 0-58.8003552-147.456 144.1792 144.1792 0 0 0-147.21327467-11.2867552c-33.79958507 16.74808853-59.1644448 47.2708736-72.39300693 82.22340693-36.95502187 0.30340693-73.9707264 0.0606816-110.86506667 0.1213632-19.11466667-50.48699307-65.3539552-90.41540693-119.7852448-96.362192-61.59170347-8.67745173-124.15431147 28.27757013-149.1550816 84.71134827-78.8252448 0.30340693-157.65048853 0-236.47573333 0.12136213 20.38897813 58.67899307 41.2027264 117.29730347 61.95579307 175.85493334-23.0589632 7.09973333-46.17860693 14.01742187-69.35893334 20.87442986-21.60260693-58.01149653-41.80954027-116.5691264-63.47282986-174.51994026-52.4288 9.16290347-104.9789632 17.53694827-157.3470816 27.18530346-20.32829653 1.5170368-36.1054816 24.09054827-28.21688854 43.38725867 4.36906667 14.8669632 20.93511147 23.54441493 35.8627552 20.51034133 35.9234368-5.0972448 71.66482987-12.25765973 107.52758507-18.325808C261.1427552 315.2478816 367.15330347 610.2205632 473.83134827 904.8291552M837.49546667 739.7148448c-14.6849184-78.4004736-28.94506667-156.92231147-43.56930347-235.38346667 81.6772736-0.54613333 163.41522987-0.1820448 245.09250347-0.1820448-4.18702187 79.00728853-6.5536 158.19662187-10.43721494 237.20391147-63.8369184 0.72817813-127.43111147-2.85202987-191.08598506-1.6384m-48.60586667 57.70808853c98.00059307-0.36408853 196.00118507 1.5777184 294.00177813 3.3374816 5.33997013-118.0861632 9.7090368-236.23300693 15.41309547-354.31917013-124.94317013-0.0606816-249.82565973-0.1213632-374.7688288 0 22.39146667 116.93321493 42.96248853 234.1091552 65.3539552 350.98168853"  horiz-adv-x="1308" />

    


  </font>
</defs>
</svg>
